<svg xmlns="http://www.w3.org/2000/svg" version="1.1" xmlns:xlink="http://www.w3.org/1999/xlink" xmlns:svgjs="http://svgjs.com/svgjs" width="1440" height="560" preserveAspectRatio="none" viewBox="0 0 1440 560"><g mask="url(&quot;#SvgjsMask1058&quot;)" fill="none"><rect width="1440" height="560" x="0" y="0" fill="url(#SvgjsLinearGradient1059)"></rect><path d="M1440 0L1393.82 0L1440 237.91z" fill="rgba(255, 255, 255, .1)"></path><path d="M1393.82 0L1440 237.91L1440 353.64L1014.9399999999999 0z" fill="rgba(255, 255, 255, .075)"></path><path d="M1014.94 0L1440 353.64L1440 391.37L484.9000000000001 0z" fill="rgba(255, 255, 255, .05)"></path><path d="M484.9000000000001 0L1440 391.37L1440 495.85L285.4700000000001 0z" fill="rgba(255, 255, 255, .025)"></path><path d="M0 560L681.3 560L0 459.79z" fill="rgba(0, 0, 0, .1)"></path><path d="M0 459.79L681.3 560L1071.33 560L0 312.11z" fill="rgba(0, 0, 0, .075)"></path><path d="M0 312.11L1071.33 560L1080.1799999999998 560L0 252.05z" fill="rgba(0, 0, 0, .05)"></path><path d="M0 252.05L1080.1799999999998 560L1268.6499999999999 560L0 124.47000000000001z" fill="rgba(0, 0, 0, .025)"></path></g><defs><mask id="SvgjsMask1058"><rect width="1440" height="560" fill="#ffffff"></rect></mask><linearGradient x1="15.28%" y1="-39.29%" x2="84.72%" y2="139.29%" gradientUnits="userSpaceOnUse" id="SvgjsLinearGradient1059"><stop stop-color="#0e2a47" offset="0"></stop><stop stop-color="rgba(128, 0, 0, 1)" offset="1"></stop></linearGradient></defs></svg>